#!OML:ASF E:\I on waltz\AllaLogoMonkeySwing\Project 1\Capture day 1\Session 1\Subject1.ASF
:FULLY-SPECIFIED
:DEGREES
316
root 14.7052 17.7199 20.6677 0.614122 59.7056 -2.67077
lowerback 7.50805 4.08622 -0.143481
upperback -0.347385 5.41216 -0.490965
thorax -4.52461 2.67854 -1.03742
lowerneck -6.22229 12.1343 8.11409
upperneck 11.3939 17.7367 -13.8304
head 6.46223 8.26218 -4.08379
rclavicle 9.13664e-014 -2.78299e-015
rhumerus -28.8089 -21.3027 -80.9196
rradius 25.2174
rwrist 4.90817
rhand -10.9578 -39.2154
rfingers 7.12502
rthumb 15.0611 -68.6476
lclavicle 9.13664e-014 -2.78299e-015
lhumerus -40.8784 21.7483 78.2984
lradius 38.8044
lwrist -2.64907
lhand -11.8955 -14.4122
lfingers 7.12502
lthumb 14.1577 15.0854
rfemur 0.635899 -9.93412 22.9886
rtibia 14.2027
rfoot -14.4382 -19.1335
rtoes 17.4269
lfemur -2.35609 -3.45809 -16.3274
ltibia 18.0251
lfoot -25.4812 18.2213
ltoes -43.1009
317
root 14.7065 17.7211 20.6519 0.638078 59.9873 -2.61544
lowerback 7.54305 4.12192 -0.230306
upperback -0.30654 5.45101 -0.513129
thorax -4.50721 2.69978 -1.01755
lowerneck -6.22292 12.1109 8.22826
upperneck 11.4674 17.7179 -13.9058
head 6.50097 8.25114 -4.12448
rclavicle 9.16894e-015 2.5842e-015
rhumerus -28.7364 -21.1904 -80.9964
rradius 25.2047
rwrist 4.92514
rhand -10.7499 -39.2572
rfingers 7.12502
rthumb 15.2614 -68.6742
lclavicle 9.16894e-015 2.5842e-015
lhumerus -40.8217 21.6705 78.4139
lradius 38.9345
lwrist -2.65306
lhand -11.5752 -14.3036
lfingers 7.12502
lthumb 14.4663 15.1722
rfemur 0.608847 -10.1621 22.8717
rtibia 14.3039
rfoot -14.1546 -19.2203
rtoes 15.3353
lfemur -2.48415 -3.58857 -16.4411
ltibia 18.1693
lfoot -25.5905 18.2771
ltoes -43.1012
318
root 14.707 17.7212 20.636 0.58943 60.3105 -2.64624
lowerback 7.5534 4.17404 -0.256175
upperback -0.250165 5.51758 -0.530978
thorax -4.45425 2.73377 -1.02704
lowerneck -6.24303 12.0172 7.97124
upperneck 11.4823 17.5759 -13.6761
head 6.44726 8.18468 -4.03383
rclavicle 4.81804e-014 3.97569e-016
rhumerus -28.6762 -21.1433 -81.0336
rradius 25.201
rwrist 4.9285
rhand -10.7563 -39.3551
rfingers 7.12502
rthumb 15.2552 -68.7726
lclavicle 4.81804e-014 3.97569e-016
lhumerus -40.7981 21.6865 78.5242
lradius 39.1321
lwrist -2.82405
lhand -11.1531 -14.2025
lfingers 7.12502
lthumb 14.873 15.2436
rfemur 0.575398 -10.2892 22.8308
rtibia 14.3828
rfoot -13.9812 -19.4176
rtoes 14.0522
lfemur -2.6073 -3.73715 -16.4853
ltibia 18.3027
lfoot -25.7217 18.3615
ltoes -43.045
319
root 14.7075 17.7207 20.6183 0.435214 60.6738 -2.75951
lowerback 7.61846 4.20606 -0.216217
upperback -0.209216 5.5621 -0.568204
thorax -4.44007 2.75474 -1.09547
lowerneck -6.25957 11.9257 7.83923
upperneck 11.5504 17.4283 -13.4334
head 6.41955 8.119 -3.95699
rclavicle -5.02428e-014 -3.37934e-015
rhumerus -28.6544 -21.0201 -81.1434
rradius 25.1844
rwrist 4.74958
rhand -10.983 -39.3475
rfingers 7.12502
rthumb 15.0369 -68.7814
lclavicle -5.02428e-014 -3.37934e-015
lhumerus -40.8357 21.6179 78.6376
lradius 39.3816
lwrist -2.85488
lhand -10.7141 -14.1977
lfingers 7.12502
lthumb 15.2959 15.2167
rfemur 0.546687 -10.457 22.8129
rtibia 14.5
rfoot -14.6864 -19.6192
rtoes 17.2508
lfemur -2.68666 -3.94466 -16.4956
ltibia 18.4047
lfoot -25.8772 18.4255
ltoes -43.0274
320
root 14.7079 17.7208 20.5968 0.484301 61.0989 -2.69485
lowerback 7.6554 4.19009 -0.30238
upperback -0.201131 5.53072 -0.62155
thorax -4.45561 2.74047 -1.10205
lowerneck -6.30927 11.8685 7.84796
upperneck 11.7133 17.3292 -13.2146
head 6.44798 8.07584 -3.89783
rclavicle -3.81915e-014 2.78299e-015
rhumerus -28.7051 -20.9363 -81.2268
rradius 25.1821
rwrist 4.76842
rhand -10.9362 -39.2711
rfingers 7.12502
rthumb 15.082 -68.7016
lclavicle -3.81915e-014 2.78299e-015
lhumerus -40.9108 21.3583 78.8036
lradius 39.6577
lwrist -2.54453
lhand -10.3062 -14.3045
lfingers 7.12502
lthumb 15.6888 15.0795
rfemur 0.42215 -10.79 22.6597
rtibia 14.7198
rfoot -14.7721 -19.7448
rtoes 17.0714
lfemur -2.84132 -4.20279 -16.6283
ltibia 18.5177
lfoot -26.0734 18.481
ltoes -42.9936
321
root 14.709 17.7203 20.5741 0.527505 61.5174 -2.65744
lowerback 7.66021 4.18192 -0.408905
upperback -0.195161 5.50927 -0.646019
thorax -4.45999 2.732 -1.06632
lowerneck -6.45019 11.7958 7.73349
upperneck 11.9079 17.2107 -12.932
head 6.48363 8.01743 -3.79758
rclavicle 3.926e-014 -2.98177e-015
rhumerus -28.8096 -20.9491 -81.2204
rradius 25.1928
rwrist 4.91505
rhand -10.7107 -39.1686
rfingers 7.12502
rthumb 15.2991 -68.5828
lclavicle 3.926e-014 -2.98177e-015
lhumerus -41.1098 20.7292 79.154
lradius 40.1869
lwrist -1.84538
lhand -9.97422 -14.2726
lfingers 7.12502
lthumb 16.0085 15.086
rfemur 0.241258 -11.1419 22.5222
rtibia 15.025
rfoot -14.7254 -19.8561
rtoes 16.1255
lfemur -2.99371 -4.49854 -16.7466
ltibia 18.5853
lfoot -26.2191 18.5417
ltoes -42.9622
322
root 14.7117 17.7199 20.553 0.261245 61.9234 -2.8698
lowerback 7.69501 4.22555 -0.363451
upperback -0.145501 5.5712 -0.655951
thorax -4.4218 2.76201 -1.10878
lowerneck -6.54764 11.6754 7.76597
upperneck 11.9754 17.0386 -12.8996
head 6.50276 7.93132 -3.80654
rclavicle 5.07398e-014 1.19271e-015
rhumerus -28.8778 -20.6111 -81.3271
rradius 25.2079
rwrist 4.41694
rhand -10.5958 -39.1119
rfingers 7.12502
rthumb 15.4098 -68.5175
lclavicle 5.07398e-014 1.19271e-015
lhumerus -41.2781 19.8491 79.6064
lradius 40.7584
lwrist -1.1769
lhand -9.66629 -14.1115
lfingers 7.12502
lthumb 16.305 15.2231
rfemur 0.160661 -11.4058 22.5238
rtibia 15.3299
rfoot -14.8449 -20.019
rtoes 15.9421
lfemur -2.9906 -4.74323 -16.7186
ltibia 18.5525
lfoot -26.4441 18.6163
ltoes -43.0421
323
root 14.7142 17.7191 20.53 0.079299 62.38 -2.97095
lowerback 7.66471 4.24694 -0.363596
upperback -0.051445 5.59956 -0.686101
thorax -4.30352 2.7772 -1.13531
lowerneck -6.58331 11.5832 7.99614
upperneck 11.9519 16.9099 -13.0755
head 6.52359 7.86744 -3.90815
rclavicle 5.9859e-014 3.97569e-016
rhumerus -28.856 -19.9012 -81.5855
rradius 25.194
rwrist 3.50652
rhand -10.7279 -39.1245
rfingers 7.12502
rthumb 15.2826 -68.5399
lclavicle 5.9859e-014 3.97569e-016
lhumerus -41.1516 19.3427 79.9086
lradius 40.816
lwrist -0.887558
lhand -9.30872 -14.1152
lfingers 7.12502
lthumb 16.6492 15.1908
rfemur 0.0476047 -11.7459 22.4296
rtibia 15.7316
rfoot -15.0581 -20.1682
rtoes 15.9591
lfemur -2.98367 -4.94441 -16.7627
ltibia 18.5249
lfoot -26.767 18.7071
ltoes -43.1669
324
root 14.7165 17.7156 20.5035 0.10183 62.8841 -2.8754
lowerback 7.70197 4.20204 -0.544579
upperback -0.0507288 5.52298 -0.695215
thorax -4.34082 2.74271 -1.03976
lowerneck -6.52154 11.5427 8.06569
upperneck 11.9512 16.8431 -13.0413
head 6.50789 7.84301 -3.91979
rclavicle 9.01985e-015 7.95139e-016
rhumerus -29.0158 -19.3981 -81.7047
rradius 25.2117
rwrist 3.07349
rhand -10.8936 -39.1791
rfingers 7.12502
rthumb 15.123 -68.6066
lclavicle 9.01985e-015 7.95139e-016
lhumerus -41.0472 19.1052 80.0823
lradius 40.5933
lwrist -0.585715
lhand -8.87711 -14.1905
lfingers 7.12502
lthumb 17.0647 15.08
rfemur -0.159864 -12.1614 22.2091
rtibia 16.2599
rfoot -15.3379 -20.3059
rtoes 16.1885
lfemur -3.0292 -5.14157 -16.9235
ltibia 18.5161
lfoot -27.1288 18.8112
ltoes -43.3504
325
root 14.7206 17.7115 20.476 0.137281 63.4176 -2.72869
lowerback 8.02473 4.14249 -0.84815
upperback -0.247637 5.41139 -0.660879
thorax -4.75979 2.69086 -0.861332
lowerneck -6.30807 11.4431 7.85438
upperneck 12.0133 16.6867 -12.6723
head 6.42106 7.78939 -3.80661
rclavicle -2.44257e-014 3.57812e-015
rhumerus -29.579 -19.0748 -81.5746
rradius 25.3196
rwrist 3.11238
rhand -10.633 -39.2624
rfingers 7.12502
rthumb 15.374 -68.6708
lclavicle -2.44257e-014 3.57812e-015
lhumerus -41.3226 18.9043 80.138
lradius 40.4231
lwrist -0.377423
lhand -8.27836 -14.3342
lfingers 7.12502
lthumb 17.641 14.8855
rfemur -0.345494 -12.5622 21.9553
rtibia 16.8488
rfoot -15.7488 -20.4669
rtoes 16.8122
lfemur -3.0165 -5.25302 -17.089
ltibia 18.4703
lfoot -27.6504 19.0553
ltoes -43.4605
326
root 14.7256 17.7063 20.4479 0.119717 63.9451 -2.58601
lowerback 8.02324 4.13321 -1.02645
upperback -0.163774 5.38302 -0.667523
thorax -4.68741 2.68158 -0.762251
lowerneck -6.40174 11.3223 7.71436
upperneck 12.0311 16.5056 -12.5245
head 6.39815 7.7005 -3.7568
rclavicle -4.05024e-015 0
rhumerus -29.7039 -19.065 -81.4923
rradius 25.3153
rwrist 3.29109
rhand -10.3834 -39.2587
rfingers 7.12502
rthumb 15.6144 -68.6485
lclavicle -4.05024e-015 0
lhumerus -41.1421 18.8943 80.2477
lradius 40.1494
lwrist -0.63476
lhand -7.61683 -14.6152
lfingers 7.12502
lthumb 18.2775 14.5461
rfemur -0.581116 -13.0419 21.6634
rtibia 17.6702
rfoot -16.3327 -20.5377
rtoes 17.6666
lfemur -2.93312 -5.2755 -17.2082
ltibia 18.3928
lfoot -28.2239 19.5145
ltoes -43.2042
327
root 14.7299 17.697 20.4181 0.336912 64.4373 -2.22522
lowerback 7.98707 4.15632 -1.27162
upperback -0.0956911 5.39082 -0.707949
thorax -4.61495 2.69121 -0.663552
lowerneck -6.53316 11.188 7.53434
upperneck 12.0744 16.3019 -12.319
head 6.37958 7.60011 -3.68327
rclavicle 3.65267e-014 -1.23246e-014
rhumerus -29.837 -19.2034 -81.3512
rradius 25.2274
rwrist 3.57784
rhand -10.1872 -39.1153
rfingers 7.12502
rthumb 15.8034 -68.4903
lclavicle 3.65267e-014 -1.23246e-014
lhumerus -41.005 18.9903 80.3024
lradius 39.9208
lwrist -1.07969
lhand -7.05011 -14.8848
lfingers 7.12502
lthumb 18.8226 14.2245
rfemur -1.04139 -13.6621 21.2245
rtibia 18.8541
rfoot -17.0363 -20.4637
rtoes 18.5847
lfemur -2.89056 -5.27182 -17.4222
ltibia 18.3006
lfoot -28.7348 20.0316
ltoes -42.8365
328
root 14.7318 17.6822 20.3869 0.821017 64.8797 -1.53906
lowerback 8.00742 4.1858 -1.61346
upperback -0.0336843 5.39451 -0.818054
thorax -4.58281 2.69993 -0.587821
lowerneck -6.54759 11.0428 7.41685
upperneck 12.0683 16.107 -12.2766
head 6.34644 7.50413 -3.67538
rclavicle 6.13996e-014 -8.34896e-015
rhumerus -29.977 -19.678 -81.1433
rradius 25.0807
rwrist 4.28089
rhand -9.68791 -38.9547
rfingers 7.12502
rthumb 16.2842 -68.2909
lclavicle 6.13996e-014 -8.34896e-015
lhumerus -40.9321 19.1084 80.283
lradius 39.8628
lwrist -1.4474
lhand -6.44692 -15.0867
lfingers 7.12502
lthumb 19.4027 13.9653
rfemur -1.6197 -14.2626 20.6288
rtibia 20.3219
rfoot -17.8146 -20.4213
rtoes 19.1925
lfemur -2.83942 -5.22774 -17.801
ltibia 18.2637
lfoot -29.3399 20.401
ltoes -42.8951
329
root 14.7323 17.6646 20.3538 1.30206 65.2616 -0.744633
lowerback 8.06096 4.19784 -1.95084
upperback 0.106086 5.37497 -0.969792
thorax -4.48349 2.69661 -0.553246
lowerneck -6.54365 10.9919 7.43362
upperneck 11.939 16.0209 -12.3066
head 6.30009 7.46515 -3.69943
rclavicle 2.94201e-014 9.93923e-015
rhumerus -29.9792 -20.4413 -80.987
rradius 24.8326
rwrist 5.18086
rhand -9.34436 -38.7873
rfingers 7.12502
rthumb 16.6149 -68.0961
lclavicle 2.94201e-014 9.93923e-015
lhumerus -40.8525 18.6581 80.437
lradius 40.1116
lwrist -1.14679
lhand -6.01133 -14.9686
lfingers 7.12502
lthumb 19.8215 14.0407
rfemur -2.22583 -14.8339 19.9764
rtibia 22.0716
rfoot -18.6035 -20.4038
rtoes 19.5421
lfemur -2.71346 -5.0653 -18.1936
ltibia 18.2937
lfoot -30.0478 20.6903
ltoes -43.0468
